# xmcd CD database file
#
# Track frame offsets:
#	150
#	19387
#	34172
#	56422
#	70462
#	96110
#	111072
#	131050
#	157252
#	178110
#
# Disc length: 2598 seconds
#
# Revision: 1
# Processed by: cddbd v1.5.1PL2 Copyright (c) Steve Scherf et al.
# Submitted via: CDex 1.51
#
DISCID=8f0a240a
DTITLE=Tom Jans - The Eyes Of An Only Child
DYEAR=1975
DGENRE=Pop
TTITLE0=Gotta Move
TTITLE1=Once Before I Die
TTITLE2=Where Did All My Good Friends Go?
TTITLE3=Inside Of You
TTITLE4=Struggle In Darkness
TTITLE5=Out Of Hand
TTITLE6=The Lonesome Way Back When
TTITLE7=Lonely Brother
TTITLE8=Directions And Connections
TTITLE9=The Eyes Of An Only Child
EXTD=YEAR: 1975
EXTT0=
EXTT1=
EXTT2=
EXTT3=
EXTT4=
EXTT5=
EXTT6=
EXTT7=
EXTT8=
EXTT9=
PLAYORDER=
